<svg id="Layer_1" data-name="Layer 1" xmlns="http://www.w3.org/2000/svg" viewBox="0 0 450 300"><defs><style>.cls-1{fill:#fff;}</style></defs><path class="cls-1" d="M240.94,99.22c.89.42,1.72.54,2.06,1,8.32,11.83,19.88,13,33,10.92,10.58-1.71,21.39-2.05,32-3.53a8.39,8.39,0,0,0,5.63-4.67,135.47,135.47,0,0,0,4.25-17.68c3-15.43,1.27-18.86-12.45-26.47-1.74-1-3.34-2.17-6.11-4,8.73-5.94,16.57-10.9,26.36-9.7a56.55,56.55,0,0,1,33.94,16.71c5.43,5.49,4.74,9,.66,15.44a128.58,128.58,0,0,0-11.57,24.38c12.26-1,24.37,1.35,34-7.48,3.64-3.35,8.11-4.31,12.19-1.29,8.37,6.18,17,12.18,24.38,19.47,5.73,5.69,4.17,9.68-1.06,15.77-3.29,3.82-6.32,8.75-7.22,13.6-4.61,24.83-9.49,49.56-19.86,72.75-6.27,14-15.6,25.59-30.38,31.45a50.29,50.29,0,0,1-12.89,2.68c-6.48.7-11.1-2.49-12.6-8.68-3-12.49-11.18-21.27-19.94-29.81-1.46-1.41-2.09-3.66-3.1-5.53a40,40,0,0,1,6.3.2c9.15,1.71,18.22,3.88,27.41,5.34,7.07,1.12,12.15-2.29,15.23-8.67,11.22-23.25,16.14-48.11,18.8-73.54.42-4.07-.92-6.32-5.45-5.74-9.72,1.26-19.5,2.14-29.13,3.89-2.16.39-4.73,3.43-5.51,5.78-9.57,28.74-23.86,54.72-44.21,77.27-19.14,21.21-42.54,36.27-68.61,47.41-1.26.54-3.15-.4-4.75-.65.91-1.82,1.37-4.19,2.81-5.38,21.65-17.83,40.67-38.11,54.51-62.53,9.62-17,17.37-35,25.95-52.53l-2-2.25c-8,2.44-16.36,4.12-24,7.5-10.65,4.72-19.9,5.6-28.64-3.68-9.83-10.43-16.32-21.64-11.61-36.55C239.52,100.08,240.1,99.87,240.94,99.22Z"/><path class="cls-1" d="M27.07,68.61c13.48-14.2,35.33-14.43,51.18-.43a37.87,37.87,0,0,1,9.06,11.33c1.42,2.92,1.88,8.06.23,10.44-8.77,12.59-7.45,27.2-9.32,41.13-1,7.13-1,14.39-1.47,22.75,6.07-3,11.72-5.1,16.67-8.31,15-9.78,29.87-19.88,44.66-30.05,8.79-6,10.82-14.11,6.2-23.83-.54-1.14-.39-2.6-.67-4.69,9.95,0,18.61,2.86,25.45,8.87a89.34,89.34,0,0,1,17.17,19.72c5,8.17,2.8,12.83-6.1,16.35-17.14,6.78-34.27,13.59-51.66,19.67-15.4,5.39-31.09,9.95-46.75,14.58-4,1.17-5.92,2.83-5.83,7.17.19,8.86-.37,17.75.09,26.6.68,12.92,4.74,17.51,17.86,17,17.89-.64,35.75-2.64,53.54-4.72C157.92,211,168,206,179,208.76c2,.52,4.16.62,6.17,1.15,9.1,2.43,13.83,7.15,14.35,14.18.59,7.89-3.31,14.46-12.47,17.26a154.81,154.81,0,0,1-29.37,6c-26.74,2.74-53.62,4.45-80.32-.21C57,243.6,48.75,234.53,48.36,214c-.68-36-.32-71.92-.43-107.88,0-4.21-.55-8.44-.23-12.6.95-12.12-5.43-18.6-16.19-22a18.92,18.92,0,0,1-3.18-1.44C28,69.86,27.73,69.39,27.07,68.61Z"/><path class="cls-1" d="M199.37,97.24c-14.57,0-26.36-12.16-26.23-27.1.13-14.68,12.43-27,26.78-26.8a26.88,26.88,0,0,1,26.89,27.35C226.72,86,215.12,97.23,199.37,97.24ZM184.21,70.77a15.76,15.76,0,0,0,16,15.93A16.4,16.4,0,0,0,216,70.45c-.11-9.35-6.67-16.06-15.73-16.07C190.73,54.38,184.11,61.11,184.21,70.77Z"/></svg>